<mxfile host="Electron" modified="2023-11-03T12:09:32.958Z" agent="Mozilla/5.0 (Macintosh; Intel Mac OS X 10_15_7) AppleWebKit/537.36 (KHTML, like Gecko) draw.io/22.0.3 Chrome/114.0.5735.289 Electron/25.8.4 Safari/537.36" etag="DjUh5Ep37EpUMLkv9Z4Y" version="22.0.3" type="device">
  <diagram name="Сторінка-1" id="DBX7QbC8W2XwCQgGaAbT">
    <mxGraphModel dx="1224" dy="792" grid="1" gridSize="10" guides="1" tooltips="1" connect="1" arrows="1" fold="1" page="1" pageScale="1" pageWidth="827" pageHeight="1169" math="0" shadow="0">
      <root>
        <mxCell id="0" />
        <mxCell id="1" parent="0" />
        <mxCell id="DMlP0e9W3KdEKyF_l-ZG-16" value="" style="edgeStyle=orthogonalEdgeStyle;rounded=0;orthogonalLoop=1;jettySize=auto;html=1;" parent="1" source="DMlP0e9W3KdEKyF_l-ZG-9" target="DMlP0e9W3KdEKyF_l-ZG-15" edge="1">
          <mxGeometry relative="1" as="geometry" />
        </mxCell>
        <mxCell id="DMlP0e9W3KdEKyF_l-ZG-9" value="Start" style="ellipse;whiteSpace=wrap;html=1;" parent="1" vertex="1">
          <mxGeometry x="350" y="370" width="120" height="80" as="geometry" />
        </mxCell>
        <mxCell id="DMlP0e9W3KdEKyF_l-ZG-18" value="" style="edgeStyle=orthogonalEdgeStyle;rounded=0;orthogonalLoop=1;jettySize=auto;html=1;" parent="1" source="DMlP0e9W3KdEKyF_l-ZG-15" target="DMlP0e9W3KdEKyF_l-ZG-17" edge="1">
          <mxGeometry relative="1" as="geometry" />
        </mxCell>
        <mxCell id="DMlP0e9W3KdEKyF_l-ZG-15" value="Input" style="shape=parallelogram;perimeter=parallelogramPerimeter;whiteSpace=wrap;html=1;fixedSize=1;" parent="1" vertex="1">
          <mxGeometry x="350" y="540" width="120" height="60" as="geometry" />
        </mxCell>
        <mxCell id="DMlP0e9W3KdEKyF_l-ZG-20" value="" style="edgeStyle=orthogonalEdgeStyle;rounded=0;orthogonalLoop=1;jettySize=auto;html=1;" parent="1" source="DMlP0e9W3KdEKyF_l-ZG-17" target="DMlP0e9W3KdEKyF_l-ZG-19" edge="1">
          <mxGeometry relative="1" as="geometry" />
        </mxCell>
        <mxCell id="DMlP0e9W3KdEKyF_l-ZG-17" value="Conversion to %" style="whiteSpace=wrap;html=1;" parent="1" vertex="1">
          <mxGeometry x="350" y="679" width="120" height="60" as="geometry" />
        </mxCell>
        <mxCell id="DMlP0e9W3KdEKyF_l-ZG-24" value="" style="edgeStyle=orthogonalEdgeStyle;rounded=0;orthogonalLoop=1;jettySize=auto;html=1;" parent="1" source="DMlP0e9W3KdEKyF_l-ZG-19" target="DMlP0e9W3KdEKyF_l-ZG-23" edge="1">
          <mxGeometry relative="1" as="geometry" />
        </mxCell>
        <mxCell id="DMlP0e9W3KdEKyF_l-ZG-19" value="Calculation of the amout" style="whiteSpace=wrap;html=1;" parent="1" vertex="1">
          <mxGeometry x="500" y="390" width="120" height="60" as="geometry" />
        </mxCell>
        <mxCell id="DMlP0e9W3KdEKyF_l-ZG-26" value="" style="edgeStyle=orthogonalEdgeStyle;rounded=0;orthogonalLoop=1;jettySize=auto;html=1;" parent="1" source="DMlP0e9W3KdEKyF_l-ZG-23" edge="1">
          <mxGeometry relative="1" as="geometry">
            <mxPoint x="740" y="520" as="targetPoint" />
          </mxGeometry>
        </mxCell>
        <mxCell id="DMlP0e9W3KdEKyF_l-ZG-23" value="Output of calculatio&amp;nbsp;" style="shape=parallelogram;perimeter=parallelogramPerimeter;whiteSpace=wrap;html=1;fixedSize=1;" parent="1" vertex="1">
          <mxGeometry x="660" y="390" width="160" height="60" as="geometry" />
        </mxCell>
        <mxCell id="DMlP0e9W3KdEKyF_l-ZG-27" value="End" style="ellipse;whiteSpace=wrap;html=1;" parent="1" vertex="1">
          <mxGeometry x="675" y="520" width="130" height="80" as="geometry" />
        </mxCell>
        <mxCell id="Gnujp4Mq-sKL0Z0Eamqc-5" value="" style="edgeStyle=orthogonalEdgeStyle;rounded=0;orthogonalLoop=1;jettySize=auto;html=1;" edge="1" parent="1" source="Gnujp4Mq-sKL0Z0Eamqc-1" target="Gnujp4Mq-sKL0Z0Eamqc-4">
          <mxGeometry relative="1" as="geometry" />
        </mxCell>
        <mxCell id="Gnujp4Mq-sKL0Z0Eamqc-1" value="Start" style="ellipse;whiteSpace=wrap;html=1;" vertex="1" parent="1">
          <mxGeometry x="85" y="20" width="120" height="80" as="geometry" />
        </mxCell>
        <mxCell id="Gnujp4Mq-sKL0Z0Eamqc-7" value="" style="edgeStyle=orthogonalEdgeStyle;rounded=0;orthogonalLoop=1;jettySize=auto;html=1;" edge="1" parent="1" source="Gnujp4Mq-sKL0Z0Eamqc-4" target="Gnujp4Mq-sKL0Z0Eamqc-6">
          <mxGeometry relative="1" as="geometry" />
        </mxCell>
        <mxCell id="Gnujp4Mq-sKL0Z0Eamqc-4" value="Print(&quot;Hello World&quot;)" style="shape=parallelogram;perimeter=parallelogramPerimeter;whiteSpace=wrap;html=1;fixedSize=1;" vertex="1" parent="1">
          <mxGeometry x="70" y="150" width="150" height="60" as="geometry" />
        </mxCell>
        <mxCell id="Gnujp4Mq-sKL0Z0Eamqc-6" value="End" style="ellipse;whiteSpace=wrap;html=1;" vertex="1" parent="1">
          <mxGeometry x="85" y="280" width="120" height="80" as="geometry" />
        </mxCell>
      </root>
    </mxGraphModel>
  </diagram>
</mxfile>
